<svg xmlns="http://www.w3.org/2000/svg" xmlns:xlink="http://www.w3.org/1999/xlink" width="1080" zoomAndPan="magnify" viewBox="0 0 810 809.999993" height="1080" preserveAspectRatio="xMidYMid meet" version="1.0"><defs><clipPath id="f8d01f1824"><path d="M 16.605469 318 L 793.605469 318 L 793.605469 492 L 16.605469 492 Z M 16.605469 318 " clip-rule="nonzero"/></clipPath><clipPath id="020169834e"><path d="M 16.605469 491 L 793.605469 491 L 793.605469 663.996094 L 16.605469 663.996094 Z M 16.605469 491 " clip-rule="nonzero"/></clipPath><clipPath id="1d627fc91c"><path d="M 16.605469 146 L 793.605469 146 L 793.605469 319 L 16.605469 319 Z M 16.605469 146 " clip-rule="nonzero"/></clipPath></defs><g clip-path="url(#f8d01f1824)"><path fill="#006a42" d="M 16.605469 318.582031 L 793.605469 318.582031 L 793.605469 491.082031 L 16.605469 491.082031 Z M 16.605469 318.582031 " fill-opacity="1" fill-rule="nonzero"/></g><g clip-path="url(#020169834e)"><path fill="#c22229" d="M 793.605469 491.160156 L 793.605469 593.113281 C 793.605469 632.097656 762.019531 663.660156 723.003906 663.660156 L 87.207031 663.660156 C 48.191406 663.660156 16.605469 632.097656 16.605469 593.113281 L 16.605469 491.160156 Z M 793.605469 491.160156 " fill-opacity="1" fill-rule="nonzero"/></g><g clip-path="url(#1d627fc91c)"><path fill="#fdba0b" d="M 793.605469 216.628906 L 793.605469 318.582031 L 16.605469 318.582031 L 16.605469 216.628906 C 16.605469 177.644531 48.191406 146.082031 87.207031 146.082031 L 722.925781 146.082031 C 761.941406 146.082031 793.605469 177.644531 793.605469 216.628906 Z M 793.605469 216.628906 " fill-opacity="1" fill-rule="nonzero"/></g></svg>